<?xml version="1.0" standalone="no"?>
<!DOCTYPE svg PUBLIC "-//W3C//DTD SVG 20010904//EN"
 "http://www.w3.org/TR/2001/REC-SVG-20010904/DTD/svg10.dtd">
<svg version="1.0" xmlns="http://www.w3.org/2000/svg"
 width="700.000000pt" height="700.000000pt" viewBox="0 0 700.000000 700.000000"
 preserveAspectRatio="xMidYMid meet">
<metadata>
Created by potrace 1.14, written by Peter Selinger 2001-2017
</metadata>
<g transform="translate(0.000000,700.000000) scale(0.100000,-0.100000)"
fill="#000000" stroke="none">
<path d="M1176 5924 c-44 -16 -93 -65 -104 -104 -4 -14 -7 -1063 -7 -2331 l0
-2305 25 -37 c46 -69 144 -97 222 -64 45 19 63 53 610 1144 244 485 446 879
449 875 4 -4 201 -394 438 -867 430 -857 517 -1029 560 -1099 63 -102 209 -94
272 15 43 75 245 472 624 1227 197 391 361 712 365 712 4 0 157 -298 340 -662
597 -1189 652 -1294 688 -1325 34 -29 98 -44 143 -34 51 12 87 38 113 85 l23
41 -1 2310 c-1 2275 -2 2310 -21 2343 -11 18 -37 44 -58 59 -70 48 -184 28
-226 -41 -23 -37 -114 -208 -172 -321 -22 -44 -44 -87 -49 -95 -5 -8 -58 -114
-118 -235 -348 -698 -655 -1305 -662 -1305 -4 0 -162 307 -350 683 -474 942
-603 1195 -654 1280 -22 37 -75 60 -138 60 -53 0 -63 -3 -88 -29 -47 -47 -128
-201 -587 -1119 -239 -478 -438 -873 -442 -877 -3 -4 -192 363 -419 815 -468
932 -573 1139 -591 1161 -17 20 -96 56 -123 55 -13 0 -41 -7 -62 -15z m2796
-1500 l463 -924 -463 -925 c-255 -509 -467 -925 -472 -925 -4 0 -217 417 -473
928 l-465 927 455 905 c250 498 460 915 466 927 7 12 15 19 19 17 5 -3 216
-421 470 -930z m-2176 -1671 c-207 -414 -379 -753 -381 -753 -3 0 -5 681 -5
1513 l0 1512 382 -760 381 -760 -377 -752z m3792 757 c0 -825 -3 -1502 -7
-1504 -3 -2 -175 333 -381 745 l-375 749 68 138 c38 75 72 144 77 153 5 9 59
117 120 240 61 123 116 233 122 244 6 11 92 181 190 378 98 196 180 357 182
357 2 0 4 -675 4 -1500z"/>
</g>
</svg>
