<?xml version="1.0" standalone="no"?>
<!DOCTYPE svg PUBLIC "-//W3C//DTD SVG 20010904//EN"
 "http://www.w3.org/TR/2001/REC-SVG-20010904/DTD/svg10.dtd">
<svg version="1.0" xmlns="http://www.w3.org/2000/svg"
 width="826.000000pt" height="826.000000pt" viewBox="0 0 826.000000 826.000000"
 preserveAspectRatio="xMidYMid meet">
<metadata>
Created by potrace 1.14, written by Peter Selinger 2001-2017
</metadata>
<g transform="translate(0.000000,826.000000) scale(0.100000,-0.100000)"
fill="#000000" stroke="none">
<path d="M335 8250 c-11 -4 -23 -6 -27 -3 -5 2 -8 0 -8 -5 0 -6 -11 -13 -25
-16 -36 -9 -112 -88 -138 -143 l-22 -48 -2 -3786 -3 -3786 21 -51 c27 -66 91
-133 154 -163 39 -18 66 -23 125 -23 87 1 144 22 201 75 33 32 77 87 77 99 0
11 47 105 55 108 4 2 7 8 7 14 0 7 201 415 240 488 5 8 21 42 37 75 15 33 31
61 35 63 5 2 8 8 8 14 0 14 463 942 473 946 4 2 7 9 7 15 0 14 223 461 233
465 4 2 7 8 7 14 0 10 99 213 121 248 5 8 13 26 19 40 5 14 14 32 19 40 5 8
22 42 38 75 15 33 31 62 36 63 4 2 7 9 7 15 0 12 142 299 152 307 3 3 10 18
13 33 4 15 11 30 16 33 7 4 88 -147 95 -176 0 -3 33 -72 73 -155 81 -167 122
-254 206 -430 32 -66 78 -163 103 -215 25 -52 46 -97 47 -100 1 -3 22 -48 47
-100 25 -52 70 -147 100 -210 31 -63 79 -164 108 -225 29 -60 75 -156 101
-212 27 -57 71 -149 98 -205 27 -57 70 -148 96 -203 26 -55 72 -151 101 -213
72 -149 159 -332 197 -412 155 -330 187 -390 223 -425 94 -90 221 -111 338
-55 38 18 78 46 96 68 17 20 68 112 115 203 46 91 97 192 114 224 17 33 31 65
31 71 0 7 3 14 7 16 8 3 51 88 426 833 94 187 175 343 180 346 5 3 8 8 6 10
-2 4 28 66 171 349 46 91 84 167 85 170 0 3 6 14 13 25 7 11 79 153 161 315
82 162 204 405 272 539 l123 244 71 -144 c38 -79 81 -169 95 -199 14 -30 27
-57 31 -60 3 -3 16 -31 29 -62 13 -32 27 -58 32 -58 4 0 8 -6 8 -12 0 -7 31
-76 68 -153 38 -77 89 -180 113 -230 24 -49 44 -93 44 -97 0 -4 6 -13 13 -20
6 -6 12 -15 12 -19 0 -4 50 -110 111 -236 61 -125 133 -273 159 -328 26 -55
99 -206 162 -335 194 -396 222 -455 223 -462 0 -3 4 -10 8 -14 7 -7 49 -91 51
-104 1 -5 60 -125 173 -354 40 -82 73 -155 73 -162 0 -8 3 -14 8 -14 4 0 13
-15 21 -33 102 -233 196 -387 238 -387 7 0 13 -4 13 -9 0 -8 10 -12 65 -29 45
-14 160 -5 206 15 57 26 119 87 150 150 l23 48 1 3890 c1 3801 1 3891 -18
3948 -10 31 -23 57 -28 57 -5 0 -9 5 -9 12 0 18 -66 74 -118 100 -69 34 -188
32 -257 -4 -97 -51 -86 -32 -373 -603 -86 -170 -159 -311 -164 -313 -4 -2 -8
-9 -8 -16 0 -7 -29 -68 -63 -137 -35 -68 -182 -358 -327 -644 -145 -286 -266
-527 -271 -535 -4 -8 -10 -22 -13 -30 -4 -8 -105 -208 -226 -445 -120 -236
-240 -473 -266 -525 l-47 -95 -113 230 c-125 256 -281 577 -384 790 -37 77
-111 230 -165 340 -192 394 -229 470 -230 475 0 3 -15 33 -33 67 -18 35 -32
65 -33 68 0 2 -40 84 -88 182 -116 236 -146 297 -146 303 -1 3 -16 34 -35 70
-19 36 -35 67 -35 70 -1 3 -36 77 -79 165 -43 88 -114 233 -157 323 -86 177
-125 228 -208 266 -67 30 -189 29 -251 -3 -98 -51 -87 -32 -660 -1178 -297
-593 -540 -1082 -540 -1086 0 -4 -5 -13 -10 -20 -6 -7 -134 -259 -285 -562
l-274 -550 -67 140 c-38 77 -68 142 -69 145 -1 3 -22 48 -47 100 -43 90 -99
207 -208 435 -26 55 -69 145 -96 200 -26 55 -49 102 -49 105 -1 3 -28 59 -60
125 -32 66 -59 122 -60 125 -1 5 -22 51 -120 255 -79 165 -157 327 -205 430
-21 44 -65 137 -98 205 -33 69 -81 170 -107 225 -26 55 -64 134 -84 175 -41
83 -41 81 -48 110 -3 11 -9 20 -14 20 -5 0 -9 4 -9 10 0 29 -225 484 -259 522
-50 57 -123 90 -206 94 -38 1 -79 -1 -90 -6z m3805 -990 c0 -6 39 -90 86 -188
48 -97 119 -244 159 -327 102 -211 242 -498 313 -642 33 -68 58 -123 55 -123
-2 0 6 -15 19 -32 13 -18 22 -34 21 -35 -1 -2 47 -105 108 -230 61 -126 132
-271 157 -323 25 -52 45 -98 44 -102 -1 -5 2 -8 8 -8 5 0 10 -4 10 -9 0 -9
114 -248 273 -571 39 -80 72 -147 72 -150 1 -3 34 -70 73 -150 40 -80 72 -150
72 -157 0 -13 -305 -620 -322 -640 -6 -7 -8 -13 -4 -13 3 0 -4 -17 -15 -37
-21 -37 -338 -663 -549 -1083 -57 -113 -108 -208 -114 -212 -6 -4 -8 -8 -4 -8
3 0 -21 -53 -54 -118 -113 -219 -152 -297 -153 -302 -1 -3 -22 -45 -47 -95
-25 -49 -108 -213 -184 -363 l-139 -274 -52 109 c-29 59 -78 162 -109 228 -31
66 -78 165 -105 220 -68 144 -160 336 -209 440 -86 183 -162 342 -193 404 -18
35 -32 66 -33 70 0 3 -38 83 -83 176 -94 192 -105 217 -103 228 1 4 -3 7 -8 7
-6 0 -10 4 -10 10 0 5 -31 74 -69 152 -71 149 -114 238 -201 423 -29 61 -76
160 -105 220 -113 236 -167 351 -176 373 -7 19 8 56 82 205 50 100 95 189 99
197 5 8 93 186 197 395 103 209 191 382 196 383 4 2 7 8 7 14 0 14 383 782
393 786 4 2 7 8 7 14 0 15 63 142 73 146 4 2 7 8 7 13 0 8 184 381 439 887 45
90 71 123 71 92z m3407 -3100 c0 -1392 -3 -2530 -6 -2530 -3 0 -39 69 -80 153
-40 83 -121 249 -179 367 -58 118 -106 217 -107 220 0 3 -23 52 -52 110 -28
58 -94 193 -146 300 -52 107 -127 263 -168 345 -40 83 -74 152 -74 155 -4 16
-62 126 -70 132 -5 4 -7 8 -3 8 3 0 -20 53 -52 118 -62 124 -229 469 -286 589
-19 39 -34 75 -34 80 0 5 67 142 149 304 202 398 291 577 292 586 0 5 6 15 13
23 7 8 37 65 67 125 29 61 58 113 64 117 5 4 7 8 3 8 -3 0 9 30 29 68 37 71
356 702 531 1048 56 112 104 204 106 204 1 0 3 -1138 3 -2530z m-6817 2441 c0
-10 45 -106 270 -576 34 -71 78 -164 98 -205 20 -41 37 -77 37 -80 2 -8 70
-151 129 -270 30 -61 52 -110 49 -110 -2 0 5 -13 16 -29 12 -16 21 -33 21 -37
0 -4 23 -55 51 -114 62 -127 103 -213 104 -220 0 -3 7 -16 15 -30 8 -14 15
-27 15 -30 1 -3 22 -48 47 -100 25 -52 69 -144 98 -205 29 -60 82 -171 117
-245 103 -214 97 -193 68 -246 -14 -24 -25 -51 -25 -59 0 -7 -3 -15 -8 -17 -4
-1 -256 -501 -561 -1110 -304 -610 -556 -1108 -559 -1108 -4 0 -6 1080 -4
2400 1 1585 5 2400 12 2400 6 0 10 -4 10 -9z"/>
</g>
</svg>
