<?xml version="1.0" standalone="no"?>
<!DOCTYPE svg PUBLIC "-//W3C//DTD SVG 20010904//EN"
 "http://www.w3.org/TR/2001/REC-SVG-20010904/DTD/svg10.dtd">
<svg version="1.0" xmlns="http://www.w3.org/2000/svg"
 width="700.000000pt" height="700.000000pt" viewBox="0 0 700.000000 700.000000"
 preserveAspectRatio="xMidYMid meet" style="background-color:#f5f5f5;">
<metadata>
Created by potrace 1.14, written by Peter Selinger 2001-2017
</metadata>
<g transform="translate(0.000000,700.000000) scale(0.100000,-0.100000)"
fill="#000000" stroke="none">
<path d="M1175 5925 c-49 -17 -90 -62 -104 -112 -15 -53 -15 -4573 0 -4626 31
-112 180 -159 273 -86 19 15 176 320 525 1018 l498 996 496 -991 c398 -795
502 -996 530 -1021 68 -59 169 -53 228 15 21 24 220 411 519 1010 267 535 487
972 490 972 3 0 226 -441 495 -980 270 -540 501 -992 515 -1005 84 -80 217
-63 274 35 l21 35 0 2315 0 2315 -23 37 c-59 95 -181 113 -265 38 -24 -21
-158 -280 -522 -1009 -269 -540 -492 -981 -495 -981 -3 0 -226 441 -495 980
-324 648 -500 991 -520 1010 -41 39 -107 56 -162 41 -84 -23 -29 78 -803
-1471 l-282 -565 -492 982 c-270 540 -500 991 -511 1004 -25 27 -92 59 -125
58 -14 0 -43 -6 -65 -14z m2795 -1494 l465 -931 -465 -930 c-256 -511 -467
-930 -470 -930 -3 0 -215 420 -471 933 l-466 932 465 932 c257 512 469 930
472 928 3 -2 214 -422 470 -934z m-2178 -1686 l-381 -760 0 1520 0 1520 381
-760 380 -760 -380 -760z m3796 3 l-3 -763 -380 757 -380 758 380 760 380 760
3 -754 c1 -415 1 -1098 0 -1518z"/>
</g>
</svg>
